<?xml version="1.0" encoding="UTF-8"?>
<svg xmlns="http://www.w3.org/2000/svg" viewBox="0 0 24 24" width="24" height="24" fill="none" stroke="#6366f1" stroke-width="2" stroke-linecap="round" stroke-linejoin="round">
  <path d="M18 14c.9-.9 1.5-2 1.5-3.5-.02-3-3-5.5-5.5-5.5-.57 0-1.13.11-1.65.34"/>
  <path d="M13.5 8a2.5 2.5 0 1 0 0 5"/>
  <path d="M6 9v7.75"/>
  <path d="M8.8 9a4 4 0 0 1 7.2 0"/>
  <path d="M12 16.75l.22.01a3.45 3.45 0 0 1 3.12 4.74"/>
  <path d="M9 18.75A3.99 3.99 0 0 0 6 21.25"/>
  <path d="M10 9.5a2.5 2.5 0 1 1 5 0 2.5 2.5 0 0 1-5 0z"/>
  <path d="M13.75 6.75C14.47 5.72 15.5 5 16.75 5a4 4 0 0 1 0 8"/>
  <circle cx="12" cy="18" r="1"/>
</svg> 